<?xml version="1.0" encoding="UTF-8"?>
<svg xmlns="http://www.w3.org/2000/svg" viewBox="0 0 512 512" width="512" height="512"><g id="Outline"><path d="M416,336h16V56a40.045,40.045,0,0,0-40-40H120A40.045,40.045,0,0,0,80,56v64H96V72H416ZM96,56a24.028,24.028,0,0,1,24-24H392a24.028,24.028,0,0,1,24,24ZM32,496H16V424A168.833,168.833,0,0,1,80,292.076V136H96V356.687l19.716-19.716a30.627,30.627,0,1,1,43.314,43.313l-36.674,36.673A84.264,84.264,0,0,1,132.4,440H248v16H135.063a84.235,84.235,0,0,1-1.787,24H296v16H122.816a8,8,0,0,1-7.728-10.056l.673-2.527A68.352,68.352,0,0,0,105.6,420.8a8,8,0,0,1,.743-10.457l41.373-41.372a14.628,14.628,0,1,0-20.686-20.687L69.657,405.657,58.343,394.343,80,372.686V313.167A152.838,152.838,0,0,0,32,424ZM236,336a28,28,0,0,0,0,56h12V376H236a12,12,0,0,1,0-24h40a12.013,12.013,0,0,1,12,12,11.881,11.881,0,0,1-2.4,7.195l12.793,9.61A28,28,0,0,0,276,336H264V320h40V304H264V288h32a8,8,0,0,0,8-8V232a8,8,0,0,0-8-8H264V212.53L298.216,192H336v80h16V184a8,8,0,0,0-8-8H298.216L264,155.47V144h12a28,28,0,0,0,0-56H236a28,28,0,0,0,0,56h12v11.47l-36.116,21.67a8,8,0,0,0,0,13.72L248,212.53V224H216a8,8,0,0,0-8,8v48a8,8,0,0,0,8,8h32v48Zm0-208a12,12,0,0,1,0-24h40a12,12,0,0,1,0,24Zm-4.451,56L256,169.33,280.451,184,256,198.67ZM224,272V240h64v32Zm204,80a27.917,27.917,0,0,0-20,8.423,27.964,27.964,0,0,0-32-5.719V316a28,28,0,0,0-56,0v96.687l-19.876-19.876A29.885,29.885,0,0,0,278.853,384h-.77A30.083,30.083,0,0,0,258.1,436.568l64.588,57.411A7.994,7.994,0,0,0,328,496H488a8,8,0,0,0,8-8V380a27.987,27.987,0,0,0-48-19.577A27.917,27.917,0,0,0,428,352Zm28,40V380a12,12,0,0,1,24,0V480H331.042l-62.315-55.391A14.083,14.083,0,0,1,278.083,400h.77a13.992,13.992,0,0,1,9.958,4.125l33.532,33.532A8,8,0,0,0,336,432V316a12,12,0,0,1,24,0v76a8,8,0,0,0,16,0V380a12,12,0,0,1,24,0v12a8,8,0,0,0,16,0V380a12,12,0,0,1,24,0v12a8,8,0,0,0,16,0ZM112,104V88h16v16Zm48-16v16H144V88Zm32,16H176V88h16Zm184,8H328V96h48Zm-48,16h48v16H328ZM184,176H136V160h48Zm0,32H136V192h48Zm0,40H136V232h48Zm-48,16h48v16H136Z" fill="#3a7be1"/></g></svg>
