<?xml version="1.0" encoding="UTF-8"?>
<svg width="54px" height="45px" viewBox="0 0 54 45" version="1.1" xmlns="http://www.w3.org/2000/svg" xmlns:xlink="http://www.w3.org/1999/xlink">
    <!-- Generator: Sketch 52.4 (67378) - http://www.bohemiancoding.com/sketch -->
    <title>Text</title>
    <desc>Created with Sketch.</desc>
    <g id="Page-1" stroke="none" stroke-width="1" fill="none" fill-rule="evenodd">
        <g id="5_Message-Builder-1_Add-Photo" transform="translate(-1017.000000, -744.000000)">
            <g id="Builder" transform="translate(220.000000, 80.000000)">
                <g transform="translate(0.000000, 50.000000)" id="Left-Side">
                    <g transform="translate(450.000000, 0.000000)">
                        <g id="Add-A-Card" transform="translate(0.000000, 560.000000)">
                            <g id="Card-row">
                                <g id="Text" transform="translate(341.000000, 48.000000)">
                                    <g transform="translate(6.000000, 6.000000)">
                                        <g>
                                            <g>
                                                <path d="M4,1 C2.34314575,1 1,2.34314575 1,4 L1,41 C1,42.6568542 2.34314575,44 4,44 L50,44 C51.6568542,44 53,42.6568542 53,41 L53,4 C53,2.34314575 51.6568542,1 50,1 L4,1 Z" id="Rectangle-6" stroke="#B1B9CC" stroke-width="2"></path>
                                                <g id="Group-7" transform="translate(14.000000, 14.000000)" fill="#274BF0">
                                                    <path d="M19.568,13.332 C19.568,14.532006 19.9759959,15.132 20.792,15.132 C20.9200006,15.132 21.1119987,15.1120002 21.368,15.072 C21.6240013,15.0319998 21.8159994,15.012 21.944,15.012 C22.152001,15.012 22.3319992,15.0879992 22.484,15.24 C22.6360008,15.3920008 22.712,15.571999 22.712,15.78 C22.712,16.3400028 22.3520036,16.62 21.632,16.62 L21.488,16.62 C21.4079996,16.6039999 21.3520002,16.596 21.32,16.596 L20.144,16.428 C19.6959978,16.3639997 19.1920028,16.332 18.632,16.332 C18.023997,16.332 17.4880023,16.3639997 17.024,16.428 L15.824,16.596 C15.7759998,16.596 15.7200003,16.6039999 15.656,16.62 L15.488,16.62 C14.7839965,16.62 14.432,16.3400028 14.432,15.78 C14.432,15.2679974 14.6879974,15.012 15.2,15.012 C15.3280006,15.012 15.5199987,15.0319998 15.776,15.072 C16.0320013,15.1120002 16.2239994,15.132 16.352,15.132 C17.152004,15.132 17.552,14.532006 17.552,13.332 L17.552,11.652 L17.576,9.54 L17.576,7.5 L17.552,3.588 C17.552,2.45199432 16.9680058,1.884 15.8,1.884 L15.056,1.884 C13.9039942,1.884 13.328,2.4439944 13.328,3.564 C13.328,3.964002 13.3359999,4.23599928 13.352,4.38 L13.448,5.268 C13.4640001,5.41200072 13.472,5.61199872 13.472,5.868 C13.472,6.87600504 13.1600031,7.38 12.536,7.38 C11.943997,7.38 11.648,7.01200368 11.648,6.276 C11.648,6.06799896 11.6639998,5.70800256 11.696,5.196 C11.7440002,4.42799616 11.768,3.94000104 11.768,3.732 C11.768,3.331998 11.7520002,2.91600216 11.72,2.484 C11.6559997,1.63599576 11.624,1.27599936 11.624,1.404 C11.624,0.73199664 11.927997,0.396 12.536,0.396 C12.7600011,0.396 13.2799959,0.41999976 14.096,0.468 C14.1760004,0.468 14.8319938,0.48399984 16.064,0.516 L18.8,0.564 C19.1200016,0.564 19.975993,0.54800016 21.368,0.516 C21.6720015,0.516 22.1919963,0.49200024 22.928,0.444 C23.5840033,0.39599976 24.0959982,0.372 24.464,0.372 C25.264004,0.372 25.664,0.69999672 25.664,1.356 L25.664,1.404 C25.664,1.5640008 25.6440002,1.85999784 25.604,2.292 C25.5639998,2.72400216 25.5200002,3.18799752 25.472,3.684 L25.472,3.948 C25.472,4.1880012 25.4959998,4.56399744 25.544,5.076 C25.6080003,5.74800336 25.64,6.1639992 25.64,6.324 C25.64,6.98000328 25.3280031,7.308 24.704,7.308 C24.095997,7.308 23.792,6.908004 23.792,6.108 C23.792,5.81999856 23.8159998,5.39200284 23.864,4.824 C23.9120002,4.25599716 23.936,3.82800144 23.936,3.54 C23.936,2.43599448 23.3040063,1.884 22.04,1.884 L21.368,1.884 C20.775997,1.884 20.3520013,2.00799876 20.096,2.256 C19.8399987,2.50400124 19.6960002,2.91599712 19.664,3.492 L19.592,5.172 L19.568,13.332 Z" id="T"></path>
                                                    <path d="M4.998,14.652 C4.998,15.3520035 5.23599762,15.702 5.712,15.702 C5.78666704,15.702 5.89866592,15.6903335 6.048,15.667 C6.19733408,15.6436666 6.30933296,15.632 6.384,15.632 C6.50533394,15.632 6.61033289,15.6763329 6.699,15.765 C6.78766711,15.8536671 6.832,15.9586661 6.832,16.08 C6.832,16.4066683 6.6220021,16.57 6.202,16.57 L6.118,16.57 C6.0713331,16.5606666 6.03866676,16.556 6.02,16.556 L5.334,16.458 C5.07266536,16.4206665 4.7786683,16.402 4.452,16.402 C4.09733156,16.402 3.78466802,16.4206665 3.514,16.458 L2.814,16.556 C2.78599986,16.556 2.75333352,16.5606666 2.716,16.57 L2.618,16.57 C2.20733128,16.57 2.002,16.4066683 2.002,16.08 C2.002,15.7813318 2.15133184,15.632 2.45,15.632 C2.52466704,15.632 2.63666592,15.6436666 2.786,15.667 C2.93533408,15.6903335 3.04733296,15.702 3.122,15.702 C3.588669,15.702 3.822,15.3520035 3.822,14.652 L3.822,13.672 L3.836,12.44 L3.836,11.25 L3.822,8.968 C3.822,8.30533002 3.48133674,7.974 2.8,7.974 L2.366,7.974 C1.69399664,7.974 1.358,8.3006634 1.358,8.954 C1.358,9.1873345 1.36266662,9.34599958 1.372,9.43 L1.428,9.948 C1.43733338,10.0320004 1.442,10.1486659 1.442,10.298 C1.442,10.8860029 1.26000182,11.18 0.896,11.18 C0.55066494,11.18 0.378,10.9653355 0.378,10.536 C0.378,10.4146661 0.38733324,10.2046682 0.406,9.906 C0.43400014,9.45799776 0.448,9.17333394 0.448,9.052 C0.448,8.8186655 0.43866676,8.57600126 0.42,8.324 C0.38266648,7.82933086 0.364,7.61933296 0.364,7.694 C0.364,7.30199804 0.54133156,7.106 0.896,7.106 C1.02666732,7.106 1.32999762,7.11999986 1.806,7.148 C1.8526669,7.148 2.23532974,7.15733324 2.954,7.176 L4.55,7.204 C4.7366676,7.204 5.23599594,7.19466676 6.048,7.176 C6.22533422,7.176 6.52866452,7.16200014 6.958,7.134 C7.34066858,7.10599986 7.63933226,7.092 7.854,7.092 C8.320669,7.092 8.554,7.28333142 8.554,7.666 L8.554,7.694 C8.554,7.7873338 8.54233345,7.95999874 8.519,8.212 C8.49566655,8.46400126 8.47000014,8.73466522 8.442,9.024 L8.442,9.178 C8.442,9.3180007 8.45599986,9.53733184 8.484,9.836 C8.52133352,10.228002 8.54,10.4706662 8.54,10.564 C8.54,10.9466686 8.35800182,11.138 7.994,11.138 C7.63933156,11.138 7.462,10.904669 7.462,10.438 C7.462,10.2699992 7.47599986,10.020335 7.504,9.689 C7.53200014,9.35766501 7.546,9.10800084 7.546,8.94 C7.546,8.29599678 7.17733702,7.974 6.44,7.974 L6.048,7.974 C5.70266494,7.974 5.45533408,8.04633261 5.306,8.191 C5.15666592,8.33566739 5.07266676,8.57599832 5.054,8.912 L5.012,9.892 L4.998,14.652 Z" id="T"></path>
                                                </g>
                                            </g>
                                        </g>
                                    </g>
                                </g>
                            </g>
                        </g>
                    </g>
                </g>
            </g>
        </g>
    </g>
</svg>