<?xml version="1.0" encoding="UTF-8"?>
<svg width="54px" height="45px" viewBox="0 0 54 45" version="1.1" xmlns="http://www.w3.org/2000/svg" xmlns:xlink="http://www.w3.org/1999/xlink">
    <!-- Generator: Sketch 52.4 (67378) - http://www.bohemiancoding.com/sketch -->
    <title>Image</title>
    <desc>Created with Sketch.</desc>
    <g id="Page-1" stroke="none" stroke-width="1" fill="none" fill-rule="evenodd">
        <g id="5_Message-Builder-1_Add-Photo" transform="translate(-939.000000, -744.000000)">
            <g id="Builder" transform="translate(220.000000, 80.000000)">
                <g transform="translate(0.000000, 50.000000)" id="Left-Side">
                    <g transform="translate(450.000000, 0.000000)">
                        <g id="Add-A-Card" transform="translate(0.000000, 560.000000)">
                            <g id="Card-row">
                                <g id="Image" transform="translate(263.000000, 48.000000)">
                                    <g transform="translate(6.000000, 6.000000)">
                                        <g>
                                            <g>
                                                <path d="M4,1 C2.34314575,1 1,2.34314575 1,4 L1,41 C1,42.6568542 2.34314575,44 4,44 L50,44 C51.6568542,44 53,42.6568542 53,41 L53,4 C53,2.34314575 51.6568542,1 50,1 L4,1 Z" id="Rectangle-6" stroke="#B1B9CC" stroke-width="2"></path>
                                                <path d="M28,36 L28,52.5857864 L44.5857864,36 L28,36 Z" id="Rectangle-9" stroke="#B1B9CC" stroke-width="2" transform="translate(37.000000, 45.000000) rotate(45.000000) translate(-37.000000, -45.000000) "></path>
                                                <path d="M8,36 L8,52.5857864 L24.5857864,36 L8,36 Z" id="Rectangle-9" stroke="#B1B9CC" stroke-width="2" transform="translate(17.000000, 45.000000) rotate(45.000000) translate(-17.000000, -45.000000) "></path>
                                                <rect id="Rectangle-9" stroke="#274BF0" stroke-width="2" x="8" y="10" width="8" height="8" rx="4"></rect>
                                            </g>
                                        </g>
                                    </g>
                                </g>
                            </g>
                        </g>
                    </g>
                </g>
            </g>
        </g>
    </g>
</svg>