<?xml version="1.0" encoding="UTF-8"?>
<svg width="54px" height="45px" viewBox="0 0 54 45" version="1.1" xmlns="http://www.w3.org/2000/svg" xmlns:xlink="http://www.w3.org/1999/xlink">
    <!-- Generator: Sketch 52.4 (67378) - http://www.bohemiancoding.com/sketch -->
    <title>Carousel</title>
    <desc>Created with Sketch.</desc>
    <g id="Page-1" stroke="none" stroke-width="1" fill="none" fill-rule="evenodd">
        <g id="6_Message-Builder-1_Edit-Description" transform="translate(-784.000000, -744.000000)">
            <g id="Builder" transform="translate(220.000000, 80.000000)">
                <g transform="translate(0.000000, 50.000000)" id="Left-Side">
                    <g transform="translate(450.000000, 0.000000)">
                        <g id="Add-A-Card" transform="translate(0.000000, 560.000000)">
                            <g id="Card-row">
                                <g id="Carousel" transform="translate(108.000000, 48.000000)">
                                    <g id="Carsousel" transform="translate(6.000000, 6.000000)">
                                        <g id="Card-+-Card-+-Card-Mask">
                                            <g id="Carousel" transform="translate(-2.000000, 0.000000)">
                                                <g id="Card" transform="translate(51.000000, 0.000000)" stroke="#B1B9CC" stroke-width="2">
                                                    <path d="M3.5,1 C2.11928813,1 1,2.11928813 1,3.5 L1,41.5 C1,42.8807119 2.11928813,44 3.5,44 C4.88071187,44 6,42.8807119 6,41.5 L6,3.5 C6,2.11928813 4.88071187,1 3.5,1 Z" id="Rectangle-6"></path>
                                                    <path d="M1,34 L6,34 L6,3.5 C6,2.11928813 4.88071187,1 3.5,1 C2.11928813,1 1,2.11928813 1,3.5 L1,34 Z" id="Rectangle-6"></path>
                                                </g>
                                                <g id="Card" transform="translate(9.000000, 0.000000)">
                                                    <rect id="Rectangle-6" stroke="#B1B9CC" stroke-width="2" x="1" y="1" width="38" height="43" rx="4"></rect>
                                                    <path d="M1,34 L39,34 L39,4 C39,2.34314575 37.6568542,1 36,1 L4,1 C2.34314575,1 1,2.34314575 1,4 L1,34 Z" id="Rectangle-6" stroke="#B1B9CC" stroke-width="2"></path>
                                                    <rect id="Rectangle-7" fill="#274BF0" x="9" y="38" width="22" height="2" rx="1"></rect>
                                                    <path d="M21,29 L21,39.5857864 L31.5857864,29 L21,29 Z" id="Rectangle-9" stroke="#B1B9CC" stroke-width="2" transform="translate(27.000000, 35.000000) rotate(45.000000) translate(-27.000000, -35.000000) "></path>
                                                    <path d="M8,29 L8,39.5857864 L18.5857864,29 L8,29 Z" id="Rectangle-9" stroke="#B1B9CC" stroke-width="2" transform="translate(14.000000, 35.000000) rotate(45.000000) translate(-14.000000, -35.000000) "></path>
                                                    <rect id="Rectangle-9" stroke="#B1B9CC" stroke-width="2" x="8" y="8" width="8" height="8" rx="4"></rect>
                                                </g>
                                                <g id="Card" stroke="#B1B9CC" stroke-width="2">
                                                    <path d="M3.5,1 C2.11928813,1 1,2.11928813 1,3.5 L1,41.5 C1,42.8807119 2.11928813,44 3.5,44 C4.88071187,44 6,42.8807119 6,41.5 L6,3.5 C6,2.11928813 4.88071187,1 3.5,1 Z" id="Rectangle-6"></path>
                                                    <path d="M1,34 L6,34 L6,3.5 C6,2.11928813 4.88071187,1 3.5,1 C2.11928813,1 1,2.11928813 1,3.5 L1,34 Z" id="Rectangle-6"></path>
                                                </g>
                                            </g>
                                        </g>
                                    </g>
                                </g>
                            </g>
                        </g>
                    </g>
                </g>
            </g>
        </g>
    </g>
</svg>