<?xml version="1.0" encoding="UTF-8"?>
<svg width="54px" height="45px" viewBox="0 0 54 45" version="1.1" xmlns="http://www.w3.org/2000/svg" xmlns:xlink="http://www.w3.org/1999/xlink">
    <!-- Generator: Sketch 52.4 (67378) - http://www.bohemiancoding.com/sketch -->
    <title>User input</title>
    <desc>Created with Sketch.</desc>
    <g id="Page-1" stroke="none" stroke-width="1" fill="none" fill-rule="evenodd">
        <g id="Sequence_Edit_Step4" transform="translate(-810.000000, -841.000000)">
            <g id="Builder" transform="translate(-265.000000, 60.000000)">
                <g id="Add-New-Message" transform="translate(0.000000, 129.000000)">
                    <g id="Options" transform="translate(836.000000, 555.000000)">
                        <g id="Card-row">
                            <g id="User-Input" transform="translate(233.000000, 91.000000)">
                                <g transform="translate(3.000000, 6.000000)" id="User-input">
                                    <g transform="translate(3.000000, 0.000000)">
                                        <path d="M4,1 C2.34314575,1 1,2.34314575 1,4 L1,41 C1,42.6568542 2.34314575,44 4,44 L50,44 C51.6568542,44 53,42.6568542 53,41 L53,4 C53,2.34314575 51.6568542,1 50,1 L4,1 Z" id="Rectangle-6" stroke="#B1B9CC" stroke-width="2"></path>
                                        <path d="M18.8333333,34.5 C18.3593574,34.5027564 17.9308233,34.2184789 17.7490672,33.7807284 C17.5673112,33.3429779 17.6684634,32.8387722 18.005,32.505 L21.9833333,28.5266667 C22.639081,27.8701017 23.5287217,27.5008169 24.4566667,27.5 L37.5,27.5 C38.1443322,27.5 38.6666667,26.9776655 38.6666667,26.3333333 L38.6666667,13.5 C38.6666667,12.8556678 38.1443322,12.3333333 37.5,12.3333333 L16.5,12.3333333 C15.8556678,12.3333333 15.3333333,12.8556678 15.3333333,13.5 L15.3333333,26.3333333 C15.3333333,26.9776655 15.8556678,27.5 16.5,27.5 L17.6666667,27.5 C18.3109989,27.5 18.8333333,28.0223345 18.8333333,28.6666667 C18.8333333,29.3109989 18.3109989,29.8333333 17.6666667,29.8333333 L16.5,29.8333333 C14.5670034,29.8333333 13,28.26633 13,26.3333333 L13,13.5 C13,11.5670034 14.5670034,10 16.5,10 L37.5,10 C39.4329966,10 41,11.5670034 41,13.5 L41,26.3333333 C41,28.26633 39.4329966,29.8333333 37.5,29.8333333 L24.4683333,29.8333333 C24.1582299,29.8315404 23.860172,29.9532824 23.64,30.1716667 L19.6616667,34.15 C19.4434167,34.3726649 19.1451202,34.4987057 18.8333333,34.5 Z M34,16.8833333 C34,16.2390011 33.4776655,15.7166667 32.8333333,15.7166667 L20,15.7166667 C19.3556678,15.7166667 18.8333333,16.2390011 18.8333333,16.8833333 C18.8333333,17.5276655 19.3556678,18.05 20,18.05 L32.8333333,18.05 C33.4776655,18.05 34,17.5276655 34,16.8833333 Z M29.3333333,21.55 C29.3333333,20.9056678 28.8109989,20.3833333 28.1666667,20.3833333 L20,20.3833333 C19.3556678,20.3833333 18.8333333,20.9056678 18.8333333,21.55 C18.8333333,22.1943322 19.3556678,22.7166667 20,22.7166667 L28.1666667,22.7166667 C28.8109989,22.7166667 29.3333333,22.1943322 29.3333333,21.55 Z" id="Massage" fill="#274BF0"></path>
                                    </g>
                                </g>
                            </g>
                        </g>
                    </g>
                </g>
            </g>
        </g>
    </g>
</svg>