<?xml version="1.0" encoding="UTF-8"?>
<svg width="54px" height="45px" viewBox="0 0 54 45" version="1.1" xmlns="http://www.w3.org/2000/svg" xmlns:xlink="http://www.w3.org/1999/xlink">
    <!-- Generator: Sketch 52.4 (67378) - http://www.bohemiancoding.com/sketch -->
    <title>Card</title>
    <desc>Created with Sketch.</desc>
    <g id="Page-1" stroke="none" stroke-width="1" fill="none" fill-rule="evenodd">
        <g id="5_Message-Builder-1_Add-Photo" transform="translate(-706.000000, -744.000000)">
            <g id="Builder" transform="translate(220.000000, 80.000000)">
                <g transform="translate(0.000000, 50.000000)" id="Left-Side">
                    <g transform="translate(450.000000, 0.000000)">
                        <g id="Add-A-Card" transform="translate(0.000000, 560.000000)">
                            <g id="Card-row">
                                <g id="Card" transform="translate(30.000000, 48.000000)">
                                    <g transform="translate(6.000000, 6.000000)">
                                        <g>
                                            <g>
                                                <path d="M4,1 C2.34314575,1 1,2.34314575 1,4 L1,41 C1,42.6568542 2.34314575,44 4,44 L50,44 C51.6568542,44 53,42.6568542 53,41 L53,4 C53,2.34314575 51.6568542,1 50,1 L4,1 Z" id="Rectangle-6" stroke="#B1B9CC" stroke-width="2"></path>
                                                <path d="M1,29 L53,29 L53,4 C53,2.34314575 51.6568542,1 50,1 L4,1 C2.34314575,1 1,2.34314575 1,4 L1,29 Z" id="Rectangle-6" stroke="#B1B9CC" stroke-width="2"></path>
                                                <rect id="Rectangle-7" fill="#274BF0" x="17" y="38" width="21" height="2" rx="1"></rect>
                                                <path d="M7,33 L48,33 C48.5522847,33 49,33.4477153 49,34 L49,34 C49,34.5522847 48.5522847,35 48,35 L7,35 C6.44771525,35 6,34.5522847 6,34 L6,34 C6,33.4477153 6.44771525,33 7,33 Z" id="Rectangle-7" fill="#B1B9CC"></path>
                                                <path d="M28,21 L28,37.5857864 L44.5857864,21 L28,21 Z" id="Rectangle-9" stroke="#B1B9CC" stroke-width="2" transform="translate(37.000000, 30.000000) rotate(45.000000) translate(-37.000000, -30.000000) "></path>
                                                <path d="M8,21 L8,37.5857864 L24.5857864,21 L8,21 Z" id="Rectangle-9" stroke="#B1B9CC" stroke-width="2" transform="translate(17.000000, 30.000000) rotate(45.000000) translate(-17.000000, -30.000000) "></path>
                                                <rect id="Rectangle-9" stroke="#B1B9CC" stroke-width="2" x="5" y="5" width="8" height="8" rx="4"></rect>
                                            </g>
                                        </g>
                                    </g>
                                </g>
                            </g>
                        </g>
                    </g>
                </g>
            </g>
        </g>
    </g>
</svg>