<?xml version="1.0" encoding="UTF-8"?>
<svg width="14px" height="14px" viewBox="0 0 14 14" version="1.1" xmlns="http://www.w3.org/2000/svg" xmlns:xlink="http://www.w3.org/1999/xlink">
    <!-- Generator: Sketch 47.1 (45422) - http://www.bohemiancoding.com/sketch -->
    <title>Search</title>
    <desc>Created with Sketch.</desc>
    <defs></defs>
    <g id="Page-1" stroke="none" stroke-width="1" fill="none" fill-rule="evenodd">
        <g id="Fan-Page-Home" transform="translate(-613.000000, -550.000000)" fill="#30323B">
            <g id="Bottom-Left---Triggers" transform="translate(220.000000, 522.000000)">
                <g id="top-section" transform="translate(20.000000, 20.000000)">
                    <g id="Post-id" transform="translate(244.000000, 0.000000)">
                        <path d="M134.890591,18.7002188 C132.137856,18.7002188 129.906346,16.5076586 129.906346,13.7986871 C129.906346,11.0897155 132.137856,8.89277899 134.890591,8.89277899 C137.643326,8.89277899 139.875274,11.0897155 139.875274,13.7986871 C139.875274,16.5076586 137.643326,18.7002188 134.890591,18.7002188 L134.890591,18.7002188 Z M142.867834,21.238512 L139.253392,17.6805252 C140.199562,16.6520788 140.781182,15.2954048 140.781182,13.7986871 C140.781182,10.595186 138.143982,8 134.890591,8 C131.637199,8 129,10.595186 129,13.7986871 C129,16.9978118 131.637199,19.5929978 134.890591,19.5929978 C136.29628,19.5929978 137.585558,19.107221 138.598249,18.297593 L142.227133,21.868709 C142.404376,22.0437637 142.691028,22.0437637 142.867834,21.868709 C143.045077,21.6980306 143.045077,21.4135667 142.867834,21.238512 L142.867834,21.238512 Z" id="Search"></path>
                    </g>
                </g>
            </g>
        </g>
    </g>
</svg>