<?xml version="1.0" encoding="utf-8" ?>
<svg xmlns="http://www.w3.org/2000/svg" xmlns:xlink="http://www.w3.org/1999/xlink" width="22" height="22">
	<defs>
		<clipPath id="clip_0">
			<path d="M-338 -319L42 -319Q42.2561 -319 42.5106 -318.988Q42.765 -318.977 43.0172 -318.953Q43.2693 -318.93 43.5188 -318.895Q43.7682 -318.86 44.0144 -318.814Q44.2605 -318.768 44.503 -318.71Q44.7454 -318.652 44.9835 -318.583Q45.2217 -318.514 45.4551 -318.433Q45.6885 -318.353 45.9167 -318.262Q46.1448 -318.171 46.3673 -318.069Q46.5899 -317.966 46.8062 -317.854Q47.0226 -317.741 47.2324 -317.618Q47.4421 -317.495 47.6449 -317.362Q47.8477 -317.229 48.043 -317.086Q48.2384 -316.943 48.4259 -316.79Q48.6134 -316.637 48.7928 -316.476Q48.9721 -316.314 49.1429 -316.143Q49.3136 -315.972 49.4755 -315.793Q49.6373 -315.613 49.7899 -315.426Q49.9425 -315.238 50.0855 -315.043Q50.2286 -314.848 50.3617 -314.645Q50.4949 -314.442 50.618 -314.232Q50.7411 -314.023 50.8538 -313.806Q50.9664 -313.59 51.0685 -313.367Q51.1706 -313.145 51.2619 -312.917Q51.3532 -312.689 51.4334 -312.455Q51.5137 -312.222 51.5828 -311.984Q51.652 -311.745 51.7098 -311.503Q51.7676 -311.261 51.814 -311.014Q51.8604 -310.768 51.8952 -310.519Q51.9301 -310.269 51.9534 -310.017Q51.9767 -309.765 51.9883 -309.511Q52 -309.256 52 -309L52 465Q52 465.256 51.9883 465.511Q51.9767 465.765 51.9534 466.017Q51.9301 466.269 51.8952 466.519Q51.8604 466.768 51.814 467.014Q51.7676 467.261 51.7098 467.503Q51.652 467.745 51.5828 467.984Q51.5137 468.222 51.4334 468.455Q51.3532 468.689 51.2619 468.917Q51.1706 469.145 51.0685 469.367Q50.9664 469.59 50.8537 469.806Q50.7411 470.023 50.618 470.232Q50.4949 470.442 50.3617 470.645Q50.2286 470.848 50.0855 471.043Q49.9425 471.238 49.7899 471.426Q49.6373 471.613 49.4755 471.793Q49.3136 471.972 49.1429 472.143Q48.9721 472.314 48.7928 472.476Q48.6134 472.637 48.4259 472.79Q48.2384 472.943 48.043 473.086Q47.8477 473.229 47.6449 473.362Q47.4421 473.495 47.2324 473.618Q47.0226 473.741 46.8062 473.854Q46.5899 473.966 46.3673 474.069Q46.1448 474.171 45.9167 474.262Q45.6885 474.353 45.4551 474.434Q45.2217 474.514 44.9835 474.583Q44.7454 474.652 44.503 474.71Q44.2605 474.768 44.0144 474.814Q43.7682 474.86 43.5188 474.895Q43.2693 474.93 43.0172 474.953Q42.765 474.977 42.5106 474.988Q42.2561 475 42 475L-338 475Q-338.256 475 -338.511 474.988Q-338.765 474.977 -339.017 474.953Q-339.269 474.93 -339.519 474.895Q-339.768 474.86 -340.014 474.814Q-340.261 474.768 -340.503 474.71Q-340.745 474.652 -340.984 474.583Q-341.222 474.514 -341.455 474.434Q-341.689 474.353 -341.917 474.262Q-342.145 474.171 -342.367 474.069Q-342.59 473.966 -342.806 473.854Q-343.023 473.741 -343.232 473.618Q-343.442 473.495 -343.645 473.362Q-343.848 473.229 -344.043 473.086Q-344.238 472.943 -344.426 472.79Q-344.613 472.637 -344.793 472.475Q-344.972 472.314 -345.143 472.143Q-345.314 471.972 -345.475 471.793Q-345.637 471.613 -345.79 471.426Q-345.943 471.238 -346.086 471.043Q-346.229 470.848 -346.362 470.645Q-346.495 470.442 -346.618 470.232Q-346.741 470.023 -346.854 469.806Q-346.967 469.59 -347.069 469.367Q-347.171 469.145 -347.262 468.917Q-347.353 468.689 -347.434 468.455Q-347.514 468.222 -347.583 467.984Q-347.652 467.745 -347.71 467.503Q-347.768 467.261 -347.814 467.014Q-347.86 466.768 -347.895 466.519Q-347.93 466.269 -347.953 466.017Q-347.977 465.765 -347.988 465.511Q-348 465.256 -348 465L-348 -309Q-348 -309.256 -347.988 -309.511Q-347.977 -309.765 -347.953 -310.017Q-347.93 -310.269 -347.895 -310.519Q-347.86 -310.768 -347.814 -311.014Q-347.768 -311.261 -347.71 -311.503Q-347.652 -311.745 -347.583 -311.984Q-347.514 -312.222 -347.434 -312.455Q-347.353 -312.689 -347.262 -312.917Q-347.171 -313.145 -347.069 -313.367Q-346.967 -313.59 -346.854 -313.806Q-346.741 -314.023 -346.618 -314.232Q-346.495 -314.442 -346.362 -314.645Q-346.229 -314.848 -346.086 -315.043Q-345.943 -315.238 -345.79 -315.426Q-345.637 -315.613 -345.476 -315.793Q-345.314 -315.972 -345.143 -316.143Q-344.972 -316.314 -344.793 -316.475Q-344.614 -316.637 -344.426 -316.79Q-344.238 -316.943 -344.043 -317.086Q-343.848 -317.229 -343.645 -317.362Q-343.442 -317.495 -343.232 -317.618Q-343.023 -317.741 -342.806 -317.854Q-342.59 -317.966 -342.367 -318.069Q-342.145 -318.171 -341.917 -318.262Q-341.689 -318.353 -341.455 -318.433Q-341.222 -318.514 -340.984 -318.583Q-340.745 -318.652 -340.503 -318.71Q-340.261 -318.768 -340.014 -318.814Q-339.768 -318.86 -339.519 -318.895Q-339.269 -318.93 -339.017 -318.953Q-338.765 -318.977 -338.511 -318.988Q-338.256 -319 -338 -319Z" clip-rule="evenodd"/>
		</clipPath>
	</defs>
	<g clip-path="url(#clip_0)">
		<path fill="rgb(39,75,240)" stroke="none" d="M11 0C4.92456 0 0 4.9225 0 11C0 17.0775 4.92456 22 11 22C17.0754 22 22 17.0775 22 11C22 4.9225 17.0754 0 11 0ZM11 20.625C5.68425 20.625 1.375 16.3144 1.375 11C1.375 5.68563 5.68425 1.375 11 1.375C16.3158 1.375 20.625 5.68563 20.625 11C20.625 16.3144 16.3158 20.625 11 20.625ZM11.6875 10.3125L15.125 10.3125C15.5052 10.3125 15.8125 10.6219 15.8125 11C15.8125 11.3781 15.5052 11.6875 15.125 11.6875L11.6875 11.6875L11.6875 15.125C11.6875 15.5031 11.3802 15.8125 11 15.8125C10.6198 15.8125 10.3125 15.5031 10.3125 15.125L10.3125 11.6875L6.875 11.6875C6.49481 11.6875 6.1875 11.3781 6.1875 11C6.1875 10.6219 6.49481 10.3125 6.875 10.3125L10.3125 10.3125L10.3125 6.875C10.3125 6.49687 10.6198 6.1875 11 6.1875C11.3802 6.1875 11.6875 6.49687 11.6875 6.875L11.6875 10.3125Z" fill-rule="evenodd"/>
	</g>
</svg>
