<?xml version="1.0" encoding="UTF-8"?>
<svg width="10px" height="10px" viewBox="0 0 10 10" version="1.1" xmlns="http://www.w3.org/2000/svg" xmlns:xlink="http://www.w3.org/1999/xlink">
    <!-- Generator: Sketch 48.2 (47327) - http://www.bohemiancoding.com/sketch -->
    <title>Campaign Linked icon mini</title>
    <desc>Created with Sketch.</desc>
    <defs></defs>
    <g id="Build-Home" stroke="none" stroke-width="1" fill="none" fill-rule="evenodd" transform="translate(-500.000000, -264.000000)">
        <g id="Top" transform="translate(220.000000, 130.000000)" fill="#000000">
            <g id="step-2" transform="translate(280.000000, 20.000000)">
                <g id="Campaign-Linked" transform="translate(0.000000, 110.000000)">
                    <g id="Campaign-Linked-icon-mini" transform="translate(0.000000, 4.000000)">
                        <path d="M6.03887508,3.96596816 C5.91133641,3.83875238 5.70469149,3.83875238 5.57715282,3.96596816 L3.96112492,5.58199606 C3.83358626,5.70985761 3.83358626,5.91617965 3.96112492,6.0440412 C4.08866359,6.17125698 4.29530851,6.17125698 4.42284718,6.0440412 L6.03887508,4.4280133 C6.16641374,4.30015175 6.16641374,4.09382971 6.03887508,3.96596816 L6.03887508,3.96596816 Z M9.617384,0.844015369 L9.15566175,0.382615996 C8.64550709,-0.127538665 7.8186045,-0.127538665 7.30877272,0.382615996 L4.99983856,2.69122728 C4.65887443,3.0321914 4.55135449,3.51360951 4.66630073,3.9485325 L7.7701721,0.844015369 C8.02524943,0.589260922 8.43886216,0.589260922 8.69393949,0.844015369 L9.15566175,1.30606051 C9.41073908,1.56113784 9.41073908,1.97442769 9.15566175,2.22950502 L6.0514675,5.33369927 C6.48639049,5.44832262 6.9678086,5.34080269 7.30877272,4.99983856 L9.617384,2.69122728 C10.1275387,2.1813955 10.1275387,1.35417003 9.617384,0.844015369 L9.617384,0.844015369 Z M2.22950502,9.15533887 C1.97442769,9.41073908 1.56081496,9.41073908 1.30573763,9.15533887 L0.844338252,8.69393949 C0.589260922,8.43886216 0.589260922,8.02524943 0.844338252,7.7701721 L3.9485325,4.66630073 C3.51360951,4.55135449 3.0321914,4.65919731 2.69122728,4.99983856 L0.382615996,7.30877272 C-0.127538665,7.8186045 -0.127538665,8.64550709 0.382615996,9.15533887 L0.844338252,9.617384 C1.35417003,10.1275387 2.18107262,10.1275387 2.69122728,9.617384 L4.99983856,7.30877272 C5.34080269,6.9678086 5.44864551,6.48639049 5.33369927,6.0514675 L2.22950502,9.15533887 L2.22950502,9.15533887 Z"></path>
                    </g>
                </g>
            </g>
        </g>
    </g>
</svg>
