<?xml version="1.0" encoding="UTF-8"?>
<svg width="10px" height="10px" viewBox="0 0 10 10" version="1.1" xmlns="http://www.w3.org/2000/svg" xmlns:xlink="http://www.w3.org/1999/xlink">
    <!-- Generator: Sketch 48.2 (47327) - http://www.bohemiancoding.com/sketch -->
    <title>broadcast icon mini</title>
    <desc>Created with Sketch.</desc>
    <defs></defs>
    <g id="Build-Home" stroke="none" stroke-width="1" fill="none" fill-rule="evenodd" transform="translate(-500.000000, -184.000000)">
        <g id="Top" transform="translate(220.000000, 130.000000)" fill="#F0277C">
            <g id="step-2" transform="translate(280.000000, 20.000000)">
                <g id="Broadcast" transform="translate(0.000000, 30.000000)">
                    <g id="broadcast-icon-mini" transform="translate(0.000000, 4.000000)">
                        <path d="M9.375,7.5 L7.1875,5.9375 L7.1875,2.1875 L9.375,0.625 L9.375,7.5 L9.375,7.5 Z M6.5625,5.625 L5.625,5.625 L5.625,2.5 L6.5625,2.5 L6.5625,5.625 L6.5625,5.625 Z M5,5.625 L2.5,5.625 C1.87875,5.625 0.625,5.443125 0.625,4.0625 C0.625,2.681875 1.858125,2.4796875 2.5,2.5 L5,2.5 L5,5.625 L5,5.625 Z M3.4375,8.4375 C3.4375,8.6103125 3.2975,8.75 3.125,8.75 L2.8125,8.75 C2.64,8.75 2.5,8.6103125 2.5,8.4375 L2.5,6.25 L3.4375,6.25 L3.4375,8.4375 L3.4375,8.4375 Z M6.5625,1.875 L2.5,1.875 C1.119375,1.875 0,2.681875 0,4.0625 C0,5.2290625 0.794375,6.0434375 1.875,6.25 C1.8890625,6.334375 1.875,8.75 1.875,8.75 C1.875,9.095 2.155,9.375 2.5,9.375 L3.4375,9.375 C3.7825,9.375 4.0625,9.095 4.0625,8.75 L4.0625,6.25 L6.5625,6.25 L9.375,8.125 C9.72,8.125 10,7.845 10,7.5 L10,0.625 C10,0.28 9.72,0 9.375,0 L6.5625,1.875 Z"></path>
                    </g>
                </g>
            </g>
        </g>
    </g>
</svg>