<?xml version="1.0" encoding="UTF-8"?>
<svg width="10px" height="10px" viewBox="0 0 10 10" version="1.1" xmlns="http://www.w3.org/2000/svg" xmlns:xlink="http://www.w3.org/1999/xlink">
    <!-- Generator: Sketch 48.2 (47327) - http://www.bohemiancoding.com/sketch -->
    <title>autoresponse icon mini</title>
    <desc>Created with Sketch.</desc>
    <defs></defs>
    <g id="Build-Home" stroke="none" stroke-width="1" fill="none" fill-rule="evenodd" transform="translate(-500.000000, -204.000000)">
        <g id="Top" transform="translate(220.000000, 130.000000)" fill="#8527F0">
            <g id="step-2" transform="translate(280.000000, 20.000000)">
                <g id="Autoresponses" transform="translate(0.000000, 50.000000)">
                    <g id="autoresponse-icon-mini" transform="translate(0.000000, 4.000000)">
                        <path d="M7.5,3.75 C7.155,3.75 6.875,4.03 6.875,4.375 C6.875,4.72 7.155,5 7.5,5 C7.845,5 8.125,4.72 8.125,4.375 C8.125,4.03 7.845,3.75 7.5,3.75 L7.5,3.75 Z M5,8.125 C4.635,8.125 4.2825,8.0825 3.94375,8.0103125 L2.4725,8.8946875 L2.4921875,7.445 C1.364375,6.766875 0.625,5.645625 0.625,4.375 C0.625,2.3040625 2.58375,0.625 5,0.625 C7.41625,0.625 9.375,2.3040625 9.375,4.375 C9.375,6.44625 7.41625,8.125 5,8.125 L5,8.125 Z M5,0 C2.23875,0 0,1.9590625 0,4.375 C0,5.7559375 0.7328125,6.985625 1.875,7.7871875 L1.875,10 L4.0653125,8.6709375 C4.3684375,8.7209375 4.6803125,8.75 5,8.75 C7.76125,8.75 10,6.79125 10,4.375 C10,1.9590625 7.76125,0 5,0 L5,0 Z M2.5,3.75 C2.155,3.75 1.875,4.03 1.875,4.375 C1.875,4.72 2.155,5 2.5,5 C2.845,5 3.125,4.72 3.125,4.375 C3.125,4.03 2.845,3.75 2.5,3.75 L2.5,3.75 Z M5,3.75 C4.655,3.75 4.375,4.03 4.375,4.375 C4.375,4.72 4.655,5 5,5 C5.345,5 5.625,4.72 5.625,4.375 C5.625,4.03 5.345,3.75 5,3.75 L5,3.75 Z"></path>
                    </g>
                </g>
            </g>
        </g>
    </g>
</svg>