<?xml version="1.0" encoding="UTF-8"?>
<svg width="10px" height="10px" viewBox="0 0 10 10" version="1.1" xmlns="http://www.w3.org/2000/svg" xmlns:xlink="http://www.w3.org/1999/xlink">
    <!-- Generator: Sketch 48.2 (47327) - http://www.bohemiancoding.com/sketch -->
    <title>welcome message icon mini</title>
    <desc>Created with Sketch.</desc>
    <defs></defs>
    <g id="Build-Home" stroke="none" stroke-width="1" fill="none" fill-rule="evenodd" transform="translate(-500.000000, -244.000000)">
        <g id="Top" transform="translate(220.000000, 130.000000)" fill="#27F027">
            <g id="step-2" transform="translate(280.000000, 20.000000)">
                <g id="Welcome-Message" transform="translate(0.000000, 90.000000)">
                    <g id="welcome-message-icon-mini" transform="translate(0.000000, 4.000000)">
                        <path d="M7.68130427,7.971875 C7.23030795,8.4103125 6.75026548,8.865625 6.75026548,8.865625 L5.92260603,7.451875 C6.78930602,7.240625 7.53857205,6.74 8.06109064,6.05875 L8.96620651,7.604375 C8.96620651,7.604375 8.32094447,7.79 7.68130427,7.971875 L7.68130427,7.971875 Z M5,6.8775 C3.27659442,6.8775 1.87988007,5.4765625 1.87988007,3.7490625 C1.87988007,2.0215625 3.27659442,0.620625 5,0.620625 C6.72340558,0.620625 8.12011993,2.0215625 8.12011993,3.7490625 C8.12011993,5.4765625 6.72340558,6.8775 5,6.8775 L5,6.8775 Z M3.24973452,8.865625 C3.24973452,8.865625 2.76969205,8.4103125 2.31869573,7.971875 C1.67905553,7.79 1.03379349,7.604375 1.03379349,7.604375 L1.93890936,6.05875 C2.46142795,6.74 3.21069398,7.240625 4.07739397,7.451875 L3.24973452,8.865625 L3.24973452,8.865625 Z M8.4421263,5.44875 C8.69292273,4.9453125 8.83784121,4.3815625 8.83784121,3.783125 C8.83784121,1.69375 7.11943282,0 5,0 C2.88056718,0 1.16215879,1.69375 1.16215879,3.783125 C1.16215879,4.3815625 1.30707727,4.9453125 1.5578737,5.44875 L0,8.108125 C0,8.108125 0.987881816,8.3065625 1.99013055,8.5128125 C2.65850459,9.2571875 3.32375539,10 3.32375539,10 L4.75607471,7.554375 C4.83727903,7.559375 4.91754638,7.5665625 5,7.5665625 C5.08245362,7.5665625 5.16272097,7.559375 5.24392529,7.554375 L6.67624461,10 C6.67624461,10 7.34149541,9.2571875 8.00986945,8.5128125 C9.01211818,8.3065625 10,8.108125 10,8.108125 L8.4421263,5.44875 L8.4421263,5.44875 Z M5,5.3125 C4.13736023,5.3125 3.43837841,4.613125 3.43837841,3.75 C3.43837841,2.886875 4.13736023,2.1875 5,2.1875 C5.86263977,2.1875 6.56162159,2.886875 6.56162159,3.75 C6.56162159,4.613125 5.86263977,5.3125 5,5.3125 L5,5.3125 Z M5,1.5625 C3.79255419,1.5625 2.81372978,2.541875 2.81372978,3.75 C2.81372978,4.958125 3.79255419,5.9375 5,5.9375 C6.20744581,5.9375 7.18627022,4.958125 7.18627022,3.75 C7.18627022,2.541875 6.20744581,1.5625 5,1.5625 L5,1.5625 Z"></path>
                    </g>
                </g>
            </g>
        </g>
    </g>
</svg>