<?xml version="1.0" encoding="UTF-8"?>
<svg xmlns="http://www.w3.org/2000/svg" id="Icons" viewBox="0 0 74 74" width="512" height="512"><path d="M45.824,53.937H28.383a1,1,0,1,1,0-2H45.824a2.5,2.5,0,1,0,0-4.992H36.49a1,1,0,0,1-.676-.262,17.63,17.63,0,0,0-11.943-4.646H12.765a1,1,0,0,1,0-2H23.871a19.631,19.631,0,0,1,13,4.908h8.95a4.5,4.5,0,0,1,0,8.992Z" fill="#FD4647"/><path d="M36.45,66.35a16.813,16.813,0,0,1-5.593-.947.836.836,0,0,1-.119-.051L12.42,58.73a1,1,0,1,1,.68-1.88l18.34,6.629c.03.011.072.029.117.05a15.05,15.05,0,0,0,7.288.633,1,1,0,0,1,.31,1.976A17.484,17.484,0,0,1,36.45,66.35Z" fill="#FD4647"/><path d="M54.73,59.63a1,1,0,0,1-.418-1.908l2.669-1.23a1,1,0,1,1,.837,1.816l-2.67,1.23A.984.984,0,0,1,54.73,59.63Z" fill="#FD4647"/><path d="M63.76,55.45a1,1,0,0,1-.419-1.908l.761-.35,5.137-2.65-.57-.5A8.36,8.36,0,0,0,60.434,48.4l-11.36,3.89a1,1,0,1,1-.648-1.892l11.36-3.89a10.364,10.364,0,0,1,10.207,2.037l1.668,1.468a1,1,0,0,1-.2,1.639l-7.28,3.71A.99.99,0,0,1,63.76,55.45Z" fill="#FD4647"/><path d="M45.69,63.81a1,1,0,0,1-.417-1.909l2.68-1.23a1,1,0,0,1,.834,1.818l-2.68,1.23A1,1,0,0,1,45.69,63.81Z" fill="#FD4647"/><path d="M9.674,63H3a1,1,0,0,1-1-1V36.734a1,1,0,0,1,1-1H9.674a4.1,4.1,0,0,1,4.091,4.091V58.908A4.1,4.1,0,0,1,9.674,63ZM4,61H9.674a2.094,2.094,0,0,0,2.091-2.092V39.825a2.093,2.093,0,0,0-2.091-2.091H4Z" fill="#FD4647"/><path d="M51.387,23.151a1,1,0,0,1-.465-.115L47,20.975l-3.922,2.061a1,1,0,0,1-1.451-1.054l.749-4.367L39.2,14.522a1,1,0,0,1,.554-1.706l4.385-.636L46.1,8.207a1.041,1.041,0,0,1,1.794,0l1.96,3.973,4.385.636a1,1,0,0,1,.554,1.706l-3.172,3.093.749,4.367a1,1,0,0,1-.986,1.169ZM47,18.845a1,1,0,0,1,.465.114l2.594,1.364-.5-2.888a1,1,0,0,1,.288-.885l2.1-2.046-2.9-.421a1,1,0,0,1-.754-.547L47,10.909l-1.3,2.627a1,1,0,0,1-.754.547l-2.9.421,2.1,2.046a1,1,0,0,1,.288.885l-.5,2.888,2.594-1.364A1,1,0,0,1,47,18.845Z" fill="#FD4647"/><path d="M64.575,32.57a1.008,1.008,0,0,1-.465-.114L61,30.82l-3.11,1.636A1,1,0,0,1,56.439,31.4l.594-3.463-2.516-2.452a1,1,0,0,1,.554-1.706l3.477-.506,1.555-3.15a1.041,1.041,0,0,1,1.794,0l1.555,3.15,3.477.506a1,1,0,0,1,.554,1.706l-2.516,2.452.594,3.463a1,1,0,0,1-.986,1.169ZM61,28.69a1,1,0,0,1,.465.115l1.782.937-.34-1.984a1,1,0,0,1,.288-.885l1.441-1.405-1.992-.29a1,1,0,0,1-.753-.547L61,22.826l-.891,1.8a1,1,0,0,1-.753.547l-1.992.29,1.441,1.405a1,1,0,0,1,.288.885l-.34,1.984,1.782-.937A1,1,0,0,1,61,28.69Z" fill="#FD4647"/><path d="M36.575,32.57a1.008,1.008,0,0,1-.465-.114L33,30.82l-3.11,1.636A1,1,0,0,1,28.439,31.4l.594-3.463-2.516-2.452a1,1,0,0,1,.554-1.706l3.477-.506,1.555-3.15a1.041,1.041,0,0,1,1.794,0l1.555,3.15,3.477.506a1,1,0,0,1,.554,1.706l-2.516,2.452.594,3.463a1,1,0,0,1-.986,1.169ZM33,28.69a1,1,0,0,1,.465.115l1.782.937-.34-1.984a1,1,0,0,1,.288-.885l1.441-1.405-1.992-.29a1,1,0,0,1-.753-.547L33,22.826l-.891,1.8a1,1,0,0,1-.753.547l-1.992.29,1.441,1.405a1,1,0,0,1,.288.885l-.34,1.984,1.782-.937A1,1,0,0,1,33,28.69Z" fill="#FD4647"/></svg>
