<svg id="reply" xmlns="http://www.w3.org/2000/svg" width="37.008" height="37" viewBox="0 0 37.008 37">
  <path id="Path_235" data-name="Path 235" d="M27.593,27.634a.652.652,0,0,1-.553-.306,10.378,10.378,0,0,0-8.851-4.905h-.37V25.68a.652.652,0,0,1-1.113.461L10.19,19.627a.652.652,0,0,1,0-.921l6.516-6.514a.652.652,0,0,1,1.113.46v3.277A11.091,11.091,0,0,1,28.244,26.983a.65.65,0,0,1-.472.625A.613.613,0,0,1,27.593,27.634ZM17.168,21.12h1.022a11.668,11.668,0,0,1,8.5,3.63,9.793,9.793,0,0,0-9.517-7.538.652.652,0,0,1-.652-.651V14.224l-4.943,4.942,4.943,4.942V21.771a.652.652,0,0,1,.652-.651Z" transform="translate(8.764 9.366)" fill="#274bf0"/>
  <path id="Path_236" data-name="Path 236" d="M12.38,33.091H3.258C1.462,33.091,0,31.325,0,29.152V3.939C0,1.766,1.462,0,3.258,0H17.593c1.8,0,3.258,1.766,3.258,3.939V14.97a.663.663,0,1,1-1.3,0V3.939a2.191,2.191,0,0,0-1.955-2.364H3.258A2.191,2.191,0,0,0,1.3,3.939V29.152a2.191,2.191,0,0,0,1.955,2.364H12.38a.8.8,0,0,1,0,1.576Z" fill="#274bf0"/>
  <path id="Path_239" data-name="Path 239" d="M13.479,15.3H2.765a.66.66,0,1,1,0-1.3H13.479a.66.66,0,1,1,0,1.3Z" transform="translate(0.606 5.729)" fill="#274bf0"/>
  <path id="Path_240" data-name="Path 240" d="M15.206,15.3H2.88c-.486,0-.88-.292-.88-.651S2.394,14,2.88,14H15.206c.486,0,.88.292.88.651S15.692,15.3,15.206,15.3Z" transform="translate(0.606 1.729)" fill="#274bf0"/>
  <path id="Path_241" data-name="Path 241" d="M16.461,15.3H2.964c-.532,0-.964-.292-.964-.651S2.432,14,2.964,14h13.5c.532,0,.964.292.964.651S16.993,15.3,16.461,15.3Z" transform="translate(0.606 -2.271)" fill="#274bf0"/>
</svg>
