<svg xmlns="http://www.w3.org/2000/svg" width="25.569" height="37" viewBox="0 0 25.569 37">
  <g id="click" transform="translate(-0.079 -0.001)">
    <path id="Path_262" data-name="Path 262" d="M.2,16.937a1.971,1.971,0,0,0,.541,2.15c1.14,1.178,3.485,5.429,4.645,8.424a17.307,17.307,0,0,0,3.85,5.371,3.11,3.11,0,0,1,.885,2.188V35.3a1.821,1.821,0,0,0,1.792,1.85h9.555a1.821,1.821,0,0,0,1.792-1.85V33.4a.575.575,0,0,1,.159-.42c2.2-2.081,2.229-5.554,2.229-5.7V17.522a2.5,2.5,0,0,0-2.215-2.564,2.328,2.328,0,0,0-1.368.336v-.959a2.467,2.467,0,0,0-1.205-2.148,2.311,2.311,0,0,0-2.4.039,2.439,2.439,0,0,0-1.282-1.943,2.3,2.3,0,0,0-2.276.079V9.342a4.9,4.9,0,0,0,2.389-4.254A4.857,4.857,0,0,0,12.509.156,4.856,4.856,0,0,0,7.731,5.088,4.9,4.9,0,0,0,10.12,9.342v9.925a7.026,7.026,0,0,1-.284,2.15.612.612,0,0,1-.431.414.563.563,0,0,1-.537-.146,8.7,8.7,0,0,1-1.235-1.528c-1.036-1.6-3.644-4.59-5.277-4.59A2.333,2.333,0,0,0,.2,16.937ZM8.925,5.088a3.585,3.585,0,1,1,7.167,0A3.715,3.715,0,0,1,14.9,7.849V5.088a2.39,2.39,0,1,0-4.778,0V7.849A3.716,3.716,0,0,1,8.925,5.088ZM6.637,20.842a9.949,9.949,0,0,0,1.411,1.741,1.729,1.729,0,0,0,1.647.443,1.824,1.824,0,0,0,1.272-1.216,8.27,8.27,0,0,0,.347-2.544V5.088a1.2,1.2,0,1,1,2.389,0V18.034a.6.6,0,1,0,1.194,0V12.486a1.2,1.2,0,1,1,2.389,0v5.548a.6.6,0,1,0,1.194,0v-3.7a1.2,1.2,0,1,1,2.389,0v4.315a.6.6,0,1,0,1.194,0V17.418a1.243,1.243,0,0,1,.35-.871,1.187,1.187,0,0,1,.932-.359,1.3,1.3,0,0,1,1.107,1.334v9.759c0,.03-.03,3.082-1.842,4.792a1.827,1.827,0,0,0-.547,1.329V35.3a.607.607,0,0,1-.6.617H11.911a.607.607,0,0,1-.6-.617V35.07A4.373,4.373,0,0,0,10.067,32a16.529,16.529,0,0,1-3.573-4.945c-1.229-3.17-3.661-7.548-4.91-8.837-.284-.293-.379-.565-.283-.806A1.17,1.17,0,0,1,2.356,16.8c.812,0,3.012,2.077,4.281,4.041Zm0,0" transform="translate(0 -0.144)" fill="#274bf0"/>
    <path id="Path_263" data-name="Path 263" d="M314.808,303.756a.607.607,0,0,0,.6-.617v-3.7a.6.6,0,1,0-1.194,0v3.7A.607.607,0,0,0,314.808,303.756Zm0,0" transform="translate(-292.146 -277.236)" fill="#274bf0"/>
    <path id="Path_264" data-name="Path 264" d="M306.276,386.733a.587.587,0,0,0,.422-.181,2.536,2.536,0,0,0,.772-1.669.6.6,0,0,0-.583-.608.609.609,0,0,0-.612.594,1.37,1.37,0,0,1-.422.811.631.631,0,0,0-.129.672A.6.6,0,0,0,306.276,386.733Zm0,0" transform="translate(-284.212 -356.513)" fill="#274bf0"/>
    <path id="Path_265" data-name="Path 265" d="M178.273,462.19h.6a.617.617,0,0,0,0-1.233h-.6a.617.617,0,0,0,0,1.233Zm0,0" transform="translate(-165.167 -427.655)" fill="#274bf0"/>
    <path id="Path_266" data-name="Path 266" d="M220.941,462.19h4.181a.617.617,0,0,0,0-1.233h-4.181a.617.617,0,0,0,0,1.233Zm0,0" transform="translate(-204.849 -427.655)" fill="#274bf0"/>
    <path id="Path_267" data-name="Path 267" d="M77.667,10.208a.6.6,0,0,0,.548-.372.632.632,0,0,0-.113-.667,6.3,6.3,0,0,1-.262-8.148.633.633,0,0,0,.11-.614.6.6,0,0,0-.467-.4.588.588,0,0,0-.564.227,7.562,7.562,0,0,0,.311,9.778.589.589,0,0,0,.435.194Zm0,0" transform="translate(-69.936 0)" fill="#274bf0"/>
    <path id="Path_268" data-name="Path 268" d="M242.489,8.575a.58.58,0,0,0,.455.038.6.6,0,0,0,.348-.306,7.564,7.564,0,0,0-.854-8.072.588.588,0,0,0-.564-.227.6.6,0,0,0-.466.4.631.631,0,0,0,.11.614,6.3,6.3,0,0,1,.711,6.724.626.626,0,0,0,.259.83Zm0,0" transform="translate(-224.406 0)" fill="#274bf0"/>
  </g>
</svg>
