<svg id="chat_widget" enableBackground="new 0 0 512 512" height="38" viewBox="0 0 512 512" width="38" xmlns="http://www.w3.org/2000/svg">
  <g>
    <path d="m175.53 84.083h160.94c4.142 0 7.5-3.358 7.5-7.5s-3.358-7.5-7.5-7.5h-160.94c-4.142 0-7.5 3.358-7.5 7.5s3.358 7.5 7.5 7.5z" fill="#274bf0"/>
    <path d="m175.53 131.536h160.94c4.142 0 7.5-3.358 7.5-7.5s-3.358-7.5-7.5-7.5h-160.94c-4.142 0-7.5 3.358-7.5 7.5s3.358 7.5 7.5 7.5z" fill="#274bf0"/>
    <path d="m175.53 178.989h160.94c4.142 0 7.5-3.358 7.5-7.5s-3.358-7.5-7.5-7.5h-160.94c-4.142 0-7.5 3.358-7.5 7.5s3.358 7.5 7.5 7.5z" fill="#274bf0"/>
    <path d="m481.755 80.591h-82.764v-43.233c0-8.443-6.869-15.313-15.313-15.313h-208.148c-4.142 0-7.5 3.358-7.5 7.5s3.358 7.5 7.5 7.5h208.148c.172 0 .313.141.313.313v179.748c0 .172-.141.313-.313.313h-102.494c-5.494 0-10.614 2.956-13.362 7.714-.161.279-.303.567-.427.864l-18.327 43.951-18.328-43.951c-.123-.296-.266-.584-.427-.863-2.747-4.759-7.867-7.715-13.362-7.715h-88.63c-.172 0-.313-.14-.313-.313v-179.748c0-.172.141-.313.313-.313h17.208c4.142 0 7.5-3.358 7.5-7.5s-3.358-7.5-7.5-7.5h-17.208c-8.444 0-15.313 6.87-15.313 15.313v43.233h-82.763c-16.677 0-30.245 13.568-30.245 30.245v275.15c0 16.677 13.568 30.245 30.245 30.245h160.991l-7.965 58.724h-23.571c-4.142 0-7.5 3.358-7.5 7.5s3.358 7.5 7.5 7.5h187.028c4.142 0 7.5-3.358 7.5-7.5s-3.358-7.5-7.5-7.5h-17.998l-7.965-58.724h160.991c16.677 0 30.245-13.568 30.245-30.245v-275.15c-.001-16.677-13.569-30.245-30.246-30.245zm-219.98 197.696c.161-.278.303-.567.427-.863l.762-1.826c.172.012.343.026.517.026h82.345c2.591 0 4.699 2.108 4.699 4.699v16.759c0 2.591-2.108 4.698-4.699 4.698h-179.652c-2.591 0-4.699-2.107-4.699-4.698v-16.759c0-2.591 2.108-4.699 4.699-4.699h69.009l.751 1.8c.124.297.267.585.427.863 2.652 4.594 7.403 7.336 12.707 7.336 5.305 0 10.055-2.742 12.707-7.336zm51.817 196.668h-115.184l7.966-58.724h99.254zm168.163-73.725h-451.51c-8.406 0-15.245-6.839-15.245-15.245v-33.035h304.471c4.142 0 7.5-3.358 7.5-7.5s-3.358-7.5-7.5-7.5h-304.471v-227.114c0-8.406 6.839-15.245 15.245-15.245h82.764v121.515c0 8.443 6.869 15.313 15.313 15.313h88.63c.09 0 .176.028.247.079l11.728 28.125h-62.754c-10.862 0-19.699 8.837-19.699 19.699v16.759c0 10.862 8.837 19.698 19.699 19.698h179.652c10.862 0 19.699-8.836 19.699-19.698v-16.759c0-10.862-8.837-19.699-19.699-19.699h-76.618l11.728-28.125c.071-.05.158-.079.248-.079h102.494c8.444 0 15.313-6.869 15.313-15.313v-121.515h82.764c8.406 0 15.245 6.839 15.245 15.245v227.115h-147.528c-4.142 0-7.5 3.358-7.5 7.5s3.358 7.5 7.5 7.5h147.529v33.035c0 8.406-6.839 15.244-15.245 15.244z" fill="#274bf0"/>
  </g>
</svg> 
