<svg id="json" xmlns="http://www.w3.org/2000/svg" width="38" height="37" viewBox="0 0 38 37">
  <g id="Group_194" data-name="Group 194">
    <g id="Group_193" data-name="Group 193">
      <path id="Path_242" data-name="Path 242" d="M6.333,0V7.708H0V21.583H6.333V37H28.5L38,27.75V0ZM1.583,20.042V9.25h23.75V20.042ZM28.5,34.82V27.75h7.261Zm7.917-8.612h-9.5v9.25h-19V21.583h19V7.708h-19V1.542h28.5Z" fill="#274bf0"/>
    </g>
  </g>
  <g id="Group_196" data-name="Group 196" transform="translate(2.56 11.097)">
    <g id="Group_195" data-name="Group 195">
      <path id="Path_243" data-name="Path 243" d="M28.344,115.168v4.719a1.949,1.949,0,0,1-.117.782.6.6,0,0,1-.98,0,1.921,1.921,0,0,1-.119-.782v-.205H25.872v.288a3.479,3.479,0,0,0,.076.738,1.52,1.52,0,0,0,.28.615,1.307,1.307,0,0,0,.553.407,2.314,2.314,0,0,0,.888.145,2.265,2.265,0,0,0,1.539-.449,1.93,1.93,0,0,0,.5-1.5v-4.754Z" transform="translate(-25.872 -115.168)" fill="#274bf0"/>
    </g>
  </g>
  <g id="Group_198" data-name="Group 198" transform="translate(7.595 10.969)">
    <g id="Group_197" data-name="Group 197">
      <path id="Path_244" data-name="Path 244" d="M81.211,118.121a1.293,1.293,0,0,0-.2-.458,1.714,1.714,0,0,0-.394-.388,3.176,3.176,0,0,0-.636-.348l-1.055-.444a1.173,1.173,0,0,1-.568-.384.918.918,0,0,1-.133-.513,1.227,1.227,0,0,1,.033-.287.584.584,0,0,1,.123-.245.639.639,0,0,1,.242-.171.988.988,0,0,1,.378-.065.64.64,0,0,1,.57.254,1.306,1.306,0,0,1,.171.728h1.311v-.185a1.909,1.909,0,0,0-.158-.809,1.48,1.48,0,0,0-.435-.553,1.766,1.766,0,0,0-.667-.314,3.418,3.418,0,0,0-.839-.1,2.291,2.291,0,0,0-1.541.481,1.818,1.818,0,0,0-.561,1.46,2.254,2.254,0,0,0,.1.718,1.466,1.466,0,0,0,.328.546,2.063,2.063,0,0,0,.557.412,4.991,4.991,0,0,0,.788.325A5.56,5.56,0,0,1,79.2,118a1.414,1.414,0,0,1,.375.236.71.71,0,0,1,.2.29,1.076,1.076,0,0,1,.062.384.738.738,0,0,1-.252.615.881.881,0,0,1-.564.2,1.174,1.174,0,0,1-.442-.074.69.69,0,0,1-.28-.205.726.726,0,0,1-.143-.319,2.114,2.114,0,0,1-.04-.419h0v-.194H76.752v.268a1.884,1.884,0,0,0,.5,1.406,2.312,2.312,0,0,0,1.658.49,2.794,2.794,0,0,0,1.734-.478,1.791,1.791,0,0,0,.624-1.522A2.5,2.5,0,0,0,81.211,118.121Z" transform="translate(-76.752 -113.84)" fill="#274bf0"/>
    </g>
  </g>
  <g id="Group_200" data-name="Group 200" transform="translate(13.221 10.967)">
    <g id="Group_199" data-name="Group 199">
      <path id="Path_245" data-name="Path 245" d="M138.143,115.873a2.981,2.981,0,0,0-.314-1.087,1.735,1.735,0,0,0-.7-.708,3.075,3.075,0,0,0-2.449,0,1.748,1.748,0,0,0-.7.708,3.044,3.044,0,0,0-.313,1.087,12.459,12.459,0,0,0-.071,1.383,12.746,12.746,0,0,0,.071,1.386,3,3,0,0,0,.313,1.082,1.644,1.644,0,0,0,.7.694,3.239,3.239,0,0,0,2.449,0,1.649,1.649,0,0,0,.7-.694,3,3,0,0,0,.314-1.082,13.484,13.484,0,0,0,0-2.769Zm-1.325,2.516a3.07,3.07,0,0,1-.133.758.848.848,0,0,1-.285.425.824.824,0,0,1-.491.134.816.816,0,0,1-.489-.134.842.842,0,0,1-.285-.425,3.071,3.071,0,0,1-.133-.758c-.022-.311-.033-.688-.033-1.132s.009-.82.033-1.128a3.126,3.126,0,0,1,.133-.758.838.838,0,0,1,.285-.429.953.953,0,0,1,.98,0,.831.831,0,0,1,.285.429,3.05,3.05,0,0,1,.133.758c.021.308.033.684.033,1.128S136.84,118.077,136.817,118.389Z" transform="translate(-133.6 -113.824)" fill="#274bf0"/>
    </g>
  </g>
  <g id="Group_202" data-name="Group 202" transform="translate(19.215 11.097)">
    <g id="Group_201" data-name="Group 201">
      <path id="Path_246" data-name="Path 246" d="M197.427,115.168v4.525h-.021l-1.653-4.525h-1.577v6.6h1.254v-4.625h.021l1.672,4.625h1.558v-6.6Z" transform="translate(-194.176 -115.168)" fill="#274bf0"/>
    </g>
  </g>
</svg>
