<svg xmlns="http://www.w3.org/2000/svg" width="38" height="37" viewBox="0 0 38 37">
  <g id="keyword" transform="translate(-1 -1)">
    <path id="Path_247" data-name="Path 247" d="M39,1H8.355V18.633a8.668,8.668,0,0,0-.241,8.456L2.255,31.915A3.405,3.405,0,0,0,1,34.549,3.5,3.5,0,0,0,4.544,38a3.575,3.575,0,0,0,2.705-1.222l4.957-5.7a9.321,9.321,0,0,0,10.346-1.429H39ZM37.774,2.194V5.774H9.581V2.194ZM6.313,36.007a2.339,2.339,0,0,1-1.769.8,2.29,2.29,0,0,1-2.318-2.257,2.229,2.229,0,0,1,.821-1.723l5.7-4.692a9.139,9.139,0,0,0,2.391,2.328Zm10.009-5.169a7.874,7.874,0,0,1-7.968-7.758,7.739,7.739,0,0,1,4.1-6.773,5.818,5.818,0,0,0,.559,1.058,6.523,6.523,0,0,0-3.43,5.715,6.744,6.744,0,0,0,13.484,0,6.409,6.409,0,0,0-1.438-4.044,6.076,6.076,0,0,0,.927-.774,7.585,7.585,0,0,1,1.737,4.818A7.874,7.874,0,0,1,16.323,30.839Zm14.1-16.71v1.194H29.194V14.129H25.516v1.194H22.924l-.144.4a4.962,4.962,0,0,1-8.134,1.736,4.676,4.676,0,0,1-1.385-3.468A4.9,4.9,0,0,1,18,9.357h0l.156,0a4.881,4.881,0,0,1,4.619,3.183l.145.4H34.71a.605.605,0,0,1,.613.6v1.194a.605.605,0,0,1-.613.6H34.1V14.129ZM13.8,18.319a6.189,6.189,0,0,0,6.73,1.3,5.25,5.25,0,0,1,1.309,3.464,5.518,5.518,0,0,1-11.032,0A5.338,5.338,0,0,1,13.8,18.319Zm9.86,10.133a8.7,8.7,0,0,0-.327-11.134,5.935,5.935,0,0,0,.44-.8h2.968V15.323h1.226v1.194h3.677V15.323h1.226v1.194H34.71a1.817,1.817,0,0,0,1.839-1.79V13.532a1.817,1.817,0,0,0-1.839-1.79H23.774a6.158,6.158,0,0,0-11.74,2.213,5.9,5.9,0,0,0,.084,1.176A9.163,9.163,0,0,0,9.58,17.012V6.968H37.774V28.452Z" fill="#274bf0"/>
    <path id="Path_248" data-name="Path 248" d="M17,5h1.226V6.194H17Z" transform="translate(-6.194 -1.613)" fill="#274bf0"/>
    <path id="Path_249" data-name="Path 249" d="M21,5h1.226V6.194H21Z" transform="translate(-7.742 -1.613)" fill="#274bf0"/>
    <path id="Path_250" data-name="Path 250" d="M25,5h1.226V6.194H25Z" transform="translate(-9.29 -1.613)" fill="#274bf0"/>
    <path id="Path_251" data-name="Path 251" d="M25.452,19A2.388,2.388,0,1,0,27.9,21.387,2.422,2.422,0,0,0,25.452,19Zm0,3.581a1.194,1.194,0,1,1,1.226-1.194A1.211,1.211,0,0,1,25.452,22.581Z" transform="translate(-8.516 -7.258)" fill="#274bf0"/>
    <path id="Path_255" data-name="Path 255" d="M45,39h8.581v1.194H45Z" transform="translate(-17.032 -13.323)" fill="#274bf0"/>
    <path id="Path_256" data-name="Path 256" d="M45,35h8.581v1.194H45Z" transform="translate(-17.032 -12.71)" fill="#274bf0"/>
    <path id="Path_257" data-name="Path 257" d="M45,31h8.581v1.194H45Z" transform="translate(-17.032 -12.097)" fill="#274bf0"/>
  </g>
</svg>
