<svg xmlns="http://www.w3.org/2000/svg" width="45.448" height="38" viewBox="0 0 45.448 38">
  <g id="link" transform="translate(0.501 -41.921)">
    <g id="Group_212" data-name="Group 212" transform="translate(17.024 42.421)">
      <g id="Group_211" data-name="Group 211" transform="translate(0 0)">
        <path id="Path_283" data-name="Path 283" d="M207.841,44.863a8.329,8.329,0,0,0-5.895-2.442h0a8.285,8.285,0,0,0-5.89,2.439L185.295,55.621a8.344,8.344,0,0,0-2.129,8.148,1.589,1.589,0,0,0,3.059-.863,5.166,5.166,0,0,1,1.317-5.039L198.3,47.108a5.152,5.152,0,0,1,7.287,7.286L194.829,65.155a5.136,5.136,0,0,1-2.577,1.4,1.589,1.589,0,0,0,.329,3.145,1.572,1.572,0,0,0,.331-.035,8.306,8.306,0,0,0,4.165-2.26l10.761-10.759A8.33,8.33,0,0,0,207.841,44.863Z" transform="translate(-182.855 -42.421)" fill="#274bf0" stroke="#f8f8fb" stroke-width="1"/>
      </g>
    </g>
    <g id="Group_214" data-name="Group 214" transform="translate(-0.001 52.186)">
      <g id="Group_213" data-name="Group 213" transform="translate(0 0)">
        <path id="Path_284" data-name="Path 284" d="M27.065,148.382a1.589,1.589,0,0,0-3.059.863,5.166,5.166,0,0,1-1.317,5.039L11.928,165.044a5.152,5.152,0,0,1-7.287-7.286L15.4,147a5.129,5.129,0,0,1,2.574-1.4,1.589,1.589,0,1,0-.623-3.116l-.031.007a8.318,8.318,0,0,0-4.166,2.26L2.394,155.51a8.331,8.331,0,0,0,11.781,11.782L24.936,156.53A8.343,8.343,0,0,0,27.065,148.382Z" transform="translate(0.001 -142.452)" fill="#274bf0" stroke="#f8f8fb" stroke-width="1"/>
      </g>
    </g>
  </g>
</svg>
