<svg id="Page-1" xmlns="http://www.w3.org/2000/svg" width="38" height="37" viewBox="0 0 38 37">
  <g id="_025---Reply-to-Email" data-name="025---Reply-to-Email">
    <path id="Shape" d="M13.633,25.649a.625.625,0,0,0,.633-.617A5.01,5.01,0,0,1,19.333,20.1h5.7v2.775a.927.927,0,0,0,.559.842.95.95,0,0,0,1.01-.144L34.2,17.1a.9.9,0,0,0,0-1.4L26.6,9.226a.953.953,0,0,0-1.011-.145.927.927,0,0,0-.559.842V12.7h-5.7A6.259,6.259,0,0,0,13,18.866v6.167a.625.625,0,0,0,.633.617Zm.633-6.783a5.007,5.007,0,0,1,5.067-4.933h5.7A1.252,1.252,0,0,0,26.3,12.7V10.606L33.1,16.4l-6.8,5.793V20.1a1.252,1.252,0,0,0-1.267-1.233h-5.7a6.349,6.349,0,0,0-4.474,1.807,6.259,6.259,0,0,0-.592.66Z" transform="translate(-4.767 -3.449)" fill="#274bf0"/>
    <path id="Shape-2" data-name="Shape" d="M36.1,17.883H33.567V1.85A1.878,1.878,0,0,0,31.667,0H6.333a1.878,1.878,0,0,0-1.9,1.85V17.883H1.9A1.878,1.878,0,0,0,0,19.733V33.917A3.13,3.13,0,0,0,3.167,37H34.833A3.13,3.13,0,0,0,38,33.917V19.733A1.878,1.878,0,0,0,36.1,17.883Zm0,1.233a.626.626,0,0,1,.633.617v4.933H33.567v-5.55ZM5.7,1.85a.626.626,0,0,1,.633-.617H31.667a.626.626,0,0,1,.633.617V24.667H26.939a1.273,1.273,0,0,0-1.054.549l-2.157,3.151H14.272l-2.157-3.151a1.273,1.273,0,0,0-1.054-.549H5.7ZM1.9,19.117H4.433v5.55H1.267V19.733A.626.626,0,0,1,1.9,19.117Zm34.833,14.8a1.878,1.878,0,0,1-1.9,1.85H3.167a1.878,1.878,0,0,1-1.9-1.85V25.9h9.794l2.157,3.151a1.273,1.273,0,0,0,1.054.549h9.456a1.273,1.273,0,0,0,1.054-.549L26.939,25.9h9.794Z" fill="#274bf0"/>
  </g>
</svg>
