<svg xmlns="http://www.w3.org/2000/svg" width="36" height="37" viewBox="0 0 36 37">
  <g id="smartphone" transform="translate(0.5 -0.043)">
    <g id="XMLID_1_">
      <g id="Component_34_1" data-name="Component 34 – 1" transform="translate(-0.5 0.043)">
        <ellipse id="Ellipse_239" data-name="Ellipse 239" cx="0.767" cy="0.755" rx="0.767" ry="0.755" transform="translate(29.755 13.12)" fill="#274bf0"/>
        <ellipse id="Ellipse_240" data-name="Ellipse 240" cx="0.767" cy="0.755" rx="0.767" ry="0.755" transform="translate(25.842 13.12)" fill="#274bf0"/>
        <ellipse id="Ellipse_241" data-name="Ellipse 241" cx="0.767" cy="0.755" rx="0.767" ry="0.755" transform="translate(21.929 13.12)" fill="#274bf0"/>
        <path id="Path_222" data-name="Path 222" d="M14.63,25.259a2.327,2.327,0,0,0,2.348-2.312V19.6a.766.766,0,0,1,.626-.755.49.49,0,0,1,.157-.015.769.769,0,0,1,.783.771v3.345A3.885,3.885,0,0,1,14.63,26.8H11.5a.769.769,0,0,0,.783-.771v-.771Z" transform="translate(6.5 10.2)" fill="#274bf0"/>
        <path id="Path_223" data-name="Path 223" d="M13.783,0A3.885,3.885,0,0,1,17.7,3.854a.783.783,0,0,1-1.565,0,2.327,2.327,0,0,0-2.348-2.312H13A.771.771,0,1,0,13,0Z" transform="translate(7.348)" fill="#274bf0"/>
        <path id="Path_224" data-name="Path 224" d="M13.348,15.792h3.13a.769.769,0,0,1,.783.771V19.43l3.772-3.438a.81.81,0,0,1,.532-.2h5.87a.779.779,0,0,0,.783-.771V7.312a.769.769,0,0,0-.783-.771H13.348a.769.769,0,0,0-.783.771v7.708a.779.779,0,0,0,.783.771Zm8.515,1.542L17.01,21.758a.876.876,0,0,1-.532.2.71.71,0,0,1-.313-.062.779.779,0,0,1-.47-.709V17.333H13.348A2.327,2.327,0,0,1,11,15.021V7.313A2.327,2.327,0,0,1,13.348,5H27.435a2.327,2.327,0,0,1,2.348,2.313v7.708a2.327,2.327,0,0,1-2.348,2.312Z" transform="translate(6.217 2.708)" fill="#274bf0"/>
        <path id="Path_225" data-name="Path 225" d="M4,0H16.522a2.338,2.338,0,0,0-2.207,1.542H6.207A2.338,2.338,0,0,0,4,0Z" transform="translate(2.261)" fill="#274bf0"/>
        <path id="Path_226" data-name="Path 226" d="M12.8,0h1.565a.771.771,0,1,1,0,1.542H10.59A2.338,2.338,0,0,1,12.8,0Z" transform="translate(5.986)" fill="#274bf0"/>
        <path id="Path_227" data-name="Path 227" d="M11,23h1.565v.771a.783.783,0,0,1-1.565,0Z" transform="translate(6.217 12.458)" fill="#274bf0"/>
        <path id="Path_228" data-name="Path 228" d="M15.457,24.542H4.5a.769.769,0,0,0,.783-.771V23h9.391v.771A.769.769,0,0,0,15.457,24.542Z" transform="translate(2.543 12.458)" fill="#274bf0"/>
        <path id="Path_229" data-name="Path 229" d="M7.565,18.083A1.565,1.565,0,1,0,9.13,16.542,1.558,1.558,0,0,0,7.565,18.083Zm4.7,0A3.131,3.131,0,1,1,9.13,15,3.116,3.116,0,0,1,12.261,18.083Z" transform="translate(3.391 8.125)" fill="#274bf0"/>
        <path id="Path_230" data-name="Path 230" d="M14.174,1.771A2.108,2.108,0,0,1,14.315,1h2.207a.779.779,0,0,0-.783.771,2.327,2.327,0,0,1-2.348,2.313H7.13A2.327,2.327,0,0,1,4.783,1.771.779.779,0,0,0,4,1H6.207a2.108,2.108,0,0,1,.141.771.779.779,0,0,0,.783.771h6.261A.779.779,0,0,0,14.174,1.771Z" transform="translate(2.261 0.542)" fill="#274bf0"/>
        <path id="Path_231" data-name="Path 231" d="M5.565,23v.771a.783.783,0,0,1-1.565,0V23Z" transform="translate(2.261 12.458)" fill="#274bf0"/>
        <path id="Path_232" data-name="Path 232" d="M16.522,24.625H14.957v-.771a2.327,2.327,0,0,0-2.348-2.312h-4.7a2.327,2.327,0,0,0-2.348,2.313v.771H4v-.771A3.885,3.885,0,0,1,7.913,20h4.7a3.885,3.885,0,0,1,3.913,3.854Z" transform="translate(2.261 10.833)" fill="#274bf0"/>
        <path id="Path_233" data-name="Path 233" d="M4.848,0A2.338,2.338,0,0,1,7.055,1.542H3.283A.771.771,0,1,1,3.283,0Z" transform="translate(1.413)" fill="#274bf0"/>
        <path id="Path_234" data-name="Path 234" d="M3.913,37A3.885,3.885,0,0,1,0,33.146V3.854A3.885,3.885,0,0,1,3.913,0H4.7a.771.771,0,1,0,0,1.542H3.913A2.327,2.327,0,0,0,1.565,3.854V33.146a2.327,2.327,0,0,0,2.348,2.313H6.261v.771A.769.769,0,0,0,7.043,37Z" fill="#274bf0"/>
      </g>
    </g>
  </g>
</svg>
